<svg width="72" height="72" viewBox="0 0 72 72" fill="none" xmlns="http://www.w3.org/2000/svg">
<path d="M44.8242 36.4041C44.8242 34.8625 46.0577 33.6292 47.5995 33.6292C49.1413 33.6292 50.3748 34.8625 50.3748 36.4041C50.3748 37.9458 49.1413 39.1791 47.5995 39.1791C46.0577 39.1791 44.8242 37.8944 44.8242 36.4041Z" fill="white"/>
<path d="M61.5794 43.1359C61.4766 44.0095 61.3738 44.8831 61.1168 45.7053C60.3459 48.6345 58.6499 51.3067 55.8746 52.797C52.0715 54.7498 47.5488 54.0303 43.7456 52.54C40.6106 54.7498 40.6106 54.7498 40.6106 54.7498C39.8911 55.2123 38.966 54.4414 39.3771 53.6706C38.5034 53.8248 38.2465 53.0025 38.5034 52.3345C37.7839 52.8998 37.1672 51.872 37.5783 51.2553C37.8353 50.8442 38.2465 50.3817 38.5548 50.022C34.1349 47.5039 30.1262 44.4206 26.0661 41.3887C28.3788 42.8276 37.6297 47.5553 39.8911 48.5317C42.2552 49.5595 44.6193 50.5873 47.0862 51.1526C49.142 51.6151 51.7631 51.872 53.6647 50.69C55.4121 49.6623 56.0802 47.5553 56.3372 45.6539C56.9539 41.5429 55.5149 36.9179 53.3563 33.4234C51.095 29.7748 47.3946 26.4859 43.1803 25.4068C41.6385 24.9957 40.0966 24.9957 38.6576 25.2526C35.317 25.8179 32.2847 27.8734 29.972 30.4429C26.6314 34.1429 24.3187 38.7165 22.2115 43.2387C20.7725 46.2706 18.7681 53.6706 14.0399 50.7414C11.9327 49.4053 10.5965 47.0928 9.67136 44.8317C8.64348 42.4165 7.92396 39.179 8.59208 36.5581C10.0311 31.0595 17.7402 35.9415 20.3613 37.6887C20.2071 37.6373 14.0399 34.8109 11.7785 37.0206C10.7506 38.0484 10.802 39.8984 10.9562 41.2345C11.2646 43.6498 12.4466 47.247 14.708 48.5831C17.6374 50.2789 19.1279 44.9859 19.8988 43.1359C21.1836 40.0012 22.4171 36.8665 23.8561 33.7832C25.4493 30.3915 27.3509 27.0512 29.972 24.3276C29.4067 23.6596 28.5844 22.8373 28.533 21.9637C28.4302 20.9874 29.4067 19.9082 30.4346 20.4221C29.2525 19.086 30.8457 17.0818 32.3875 17.8526C31.668 16.7221 32.7987 15.2832 33.9808 15.3346C34.6489 15.3346 35.317 15.8999 35.8309 16.2596C37.1672 17.1332 38.5034 18.0582 39.8911 18.9318C52.6882 16.9276 62.71 31.4707 61.5794 43.1359Z" fill="white"/>
<path d="M61.1169 45.7058C60.346 48.6349 58.65 51.3071 55.8747 52.7974C52.0716 54.7502 47.5489 54.0307 43.7457 52.5405C40.6107 54.7502 40.6107 54.7502 40.6107 54.7502C39.8912 55.2127 38.9661 54.4418 39.3772 53.671C38.5035 53.8252 38.2466 53.003 38.5035 52.3349C37.784 52.9002 37.1673 51.8724 37.5784 51.2557C37.8354 50.8446 38.2466 50.3821 38.5549 50.0224C34.135 47.5044 30.1263 44.421 26.0662 41.3891C28.3789 42.828 37.6298 47.5557 39.8912 48.5321C42.2553 49.5599 44.6194 50.5877 47.0863 51.153C49.1421 51.6155 51.7632 51.8724 53.6648 50.6905C55.4122 49.6627 56.0803 47.5557 56.3373 45.6544C56.954 41.5433 55.515 36.9183 53.3564 33.4238C51.0951 29.7752 47.3947 26.4864 43.1804 25.4072C41.6386 24.9961 40.0967 24.9961 38.6577 25.253C44.4138 23.5058 55.515 25.8183 59.4209 34.7086C61.2711 39.0766 61.6309 42.571 61.1169 45.7058Z" fill="white"/>
</svg>
