<svg xmlns="http://www.w3.org/2000/svg" width="875.548" height="517.22" viewBox="0 0 875.548 517.22"><defs><style>.a,.d{fill:#cbffef;}.b,.c{fill:#e0e0e0;}.c,.d,.e,.h{fill-rule:evenodd;}.e,.l{fill:#fff;}.f{fill:#0e186e;}.g{fill:#89e4c8;}.h,.k{fill:#97d1ff;}.i{fill:none;}.j{opacity:0.8;}.m{fill:#fafafa;}.n{fill:#455a64;}.o{opacity:0.4;}</style></defs><g transform="translate(114.291 4.752)"><path class="a" d="M334.592,350.16s7.916,3.444-1.735,20.2-16.166,24.968-16.166,24.968-1.76,3.855,1.568,4.7,10.794,0,12.079,4.176-1.966,8.211-8.43,11.424-20.368,10.769-21.627,11.463-2.57,2.467-.334,3.367,18.749,3.5,17.052,11.283-21.177,13.763-23.3,14.47-2.66,1.542-2.57,2.686,5.757,1.5,10.435,2.429,9.946,2.827,8.6,7.235-13.159,13.223-40.8,14.508l-12.85-.231-6.425-11.193c-12.3-24.788-10.345-39.386-7.145-42.715s7.415.347,10.5,4,6.13,8.4,7.183,7.942,1.542-1.349,1.131-3.534-4.652-22.116,1.285-27.384,16.294,7.954,18.132,9.419,2.8-.527,2.789-1.94-.154-17.245-.488-24.416,1.439-11.977,5.885-12.927,7.209,6,9.522,8.533,4.87-.912,4.87-.912,4.009-9.689,13.968-26.266,16.963-11.154,16.963-11.154" transform="translate(163.848 24.352)"/><path class="b" d="M249.864,482.359c7.273-12.208,19.815-34.118,30.687-52.866s20.715-35.711,27.911-47.958c3.611-6.1,6.515-11.051,8.545-14.482l2.326-3.945.591-1.028.193-.36s-.09.116-.231.334-.36.578-.63,1.015l-2.377,3.855c-2.069,3.393-5.025,8.314-8.661,14.418-7.26,12.208-17.155,29.158-28.014,47.893s-23.375,40.684-30.584,52.931" transform="translate(169.7 27.852)"/><path class="b" d="M276.618,393.29a4.244,4.244,0,0,0-.9.206c-.578.154-1.414.4-2.429.72-2.043.63-4.832,1.581-7.9,2.673l-7.839,2.84-2.377.9a5,5,0,0,0-.861.347,3.854,3.854,0,0,0,.912-.193c.578-.154,1.4-.411,2.416-.733,2.043-.655,4.819-1.632,7.89-2.737l7.852-2.776,2.377-.835a3.854,3.854,0,0,0,.861-.411Z" transform="translate(207.172 36.851)"/><path class="b" d="M280.275,404.329c.1,0-1.593-5.885-3.791-13.056s-4.061-12.979-4.164-12.953,1.593,5.885,3.791,13.069S280.173,404.355,280.275,404.329Z" transform="translate(180.372 32.584)"/><path class="b" d="M296.691,426.128a5.564,5.564,0,0,0-.488-.822l-1.414-2.146c-1.2-1.825-2.827-4.343-4.523-7.2s-3.161-5.487-4.2-7.389l-1.285-2.275a4.855,4.855,0,0,0-.488-.81,4.307,4.307,0,0,0,.347.887c.257.553.63,1.349,1.118,2.326.977,1.94,2.4,4.6,4.112,7.466s3.38,5.359,4.639,7.145c.63.887,1.144,1.606,1.516,2.082A4.134,4.134,0,0,0,296.691,426.128Z" transform="translate(148.575 40.328)"/><path class="b" d="M289.205,420.387a3.1,3.1,0,0,0-.874,0l-2.377.077c-2.018,0-4.793.193-7.864.373s-5.834.334-7.852.488l-2.364.193a2.9,2.9,0,0,0-.874.129,4.629,4.629,0,0,0,.874,0l2.39-.064c2-.077,4.78-.206,7.852-.373s5.847-.347,7.852-.5l2.377-.193A4.059,4.059,0,0,0,289.205,420.387Z" transform="translate(178.278 44.566)"/><path class="b" d="M303.476,442.006a5.808,5.808,0,0,0-1.118,0l-3.058.077c-2.57.077-6.142.218-10.075.4s-7.492.36-10.062.514l-3.058.193a7.369,7.369,0,0,0-1.105.128,5.14,5.14,0,0,0,1.118,0l3.058-.077c2.57-.09,6.142-.219,10.075-.4s7.492-.373,10.062-.514l3.046-.206a7.418,7.418,0,0,0,1.118-.116Z" transform="translate(153.727 50.729)"/><path class="b" d="M311.509,448.759a6.522,6.522,0,0,0-.527-1.092c-.437-.72-1.015-1.658-1.7-2.8-1.426-2.364-3.392-5.628-5.449-9.3s-3.855-7.042-5.14-9.5c-.6-1.182-1.118-2.159-1.5-2.9a6.292,6.292,0,0,0-.6-1.041,7.048,7.048,0,0,0,.463,1.105c.308.707.784,1.722,1.4,2.968,1.208,2.48,2.956,5.885,5.025,9.561s4.061,6.939,5.551,9.265c.745,1.169,1.362,2.095,1.812,2.737a7.6,7.6,0,0,0,.668,1Z" transform="translate(117.95 45.068)"/><path class="c" d="M500.849,103.266a39.554,39.554,0,0,0,.45,10.614l-7.787,6.04,6.875,14.778,9.638-2.082a39.837,39.837,0,0,0,7.839,7.2l-1.285,9.766,15.331,5.59,5.32-8.276a40.21,40.21,0,0,0,10.627-.463l6.078,7.787,14.791-6.888-2.082-9.638a39.719,39.719,0,0,0,7.183-7.826l9.779,1.285,5.59-15.318-8.276-5.307a39.556,39.556,0,0,0-.45-10.614l7.762-6.091-6.875-14.778-9.638,2.082a39.468,39.468,0,0,0-7.839-7.2l1.285-9.779-15.331-5.59-5.359,8.276a40.209,40.209,0,0,0-10.627.463l-6.027-7.8-14.791,6.888,2.082,9.625a40.157,40.157,0,0,0-7.183,7.839l-9.779-1.285-5.59,15.318,8.289,5.346Zm23.336-1.735a17.476,17.476,0,1,1,.566,13.409A17.489,17.489,0,0,1,524.185,101.532Z" transform="translate(-411.564 -58.56)"/><path class="d" d="M577.778,141.071a31.177,31.177,0,0,0,.36,8.417l-6.181,4.78,5.448,11.72,7.633-1.658a32.028,32.028,0,0,0,6.207,5.706l-.99,7.71L602.4,182.18l4.228-6.567a31.752,31.752,0,0,0,8.417-.36l4.78,6.168,11.707-5.449-1.645-7.633a31.573,31.573,0,0,0,5.693-6.207l7.71.989,4.472-12.066-6.567-4.241a31.627,31.627,0,0,0-.36-8.4l6.168-4.78-5.448-11.72-7.633,1.658a31.622,31.622,0,0,0-6.207-5.706l.99-7.71L616.56,105.72l-4.228,6.567a31.753,31.753,0,0,0-8.417.36l-4.78-6.181-11.707,5.461,1.645,7.633a31.6,31.6,0,0,0-5.693,6.207l-7.71-.989-4.421,12.131,6.567,4.228Zm18.479-1.285a23.11,23.11,0,1,0,0-.051Z" transform="translate(-571.25 -45.118)"/><path class="e" d="M520.027,178.656a27.151,27.151,0,0,0,.308,7.158l-5.243,4.061,4.626,9.972,6.425-1.414a27.087,27.087,0,0,0,5.281,4.845l-.835,6.592,10.28,3.765,3.6-5.577a26.64,26.64,0,0,0,7.158-.321l4.061,5.256,9.959-4.639-1.4-6.425a27.049,27.049,0,0,0,4.845-5.269l6.579.835,3.765-10.28-5.577-3.6a27.164,27.164,0,0,0-.308-7.158L578.8,172.4l-4.639-9.959-6.425,1.4a27.09,27.09,0,0,0-5.282-4.845l.835-6.579-10.28-3.765-3.6,5.577a27.166,27.166,0,0,0-7.158.308L538.2,149.28l-9.959,4.639,1.4,6.489a27.13,27.13,0,0,0-4.845,5.282l-6.579-.848-3.765,10.28Zm15.729-1.144a19.871,19.871,0,1,1,0,.039Z" transform="translate(-429.933 -32.881)"/><rect class="b" width="41.198" height="5.641" transform="translate(480.899 297.127)"/><rect class="b" width="41.198" height="5.641" transform="translate(480.899 287.592)"/><rect class="b" width="17.823" height="5.641" transform="translate(480.899 307.355)"/></g><g transform="translate(10.435 515.876)"><path class="f" d="M38.39,456.644c0,.18,193.681.334,432.531.334s432.582-.154,432.582-.334-193.642-.334-432.582-.334S38.39,456.451,38.39,456.644Z" transform="translate(-38.39 -456.31)"/></g><g transform="translate(247.658 454.503)"><path class="g" d="M511.783,408.55a11.63,11.63,0,0,1,7.312,5.423,20.355,20.355,0,0,1,2.711,8.892c.578,6.027-1.5,12.671-4.1,18.119-5.86-3.264-8.6-10.563-9.754-14.341-1.838-5.988-1.5-17.913,3.855-18.093" transform="translate(-496.124 -408.55)"/><path class="g" d="M492.643,443.724a9.934,9.934,0,0,1,1.182-9.895,13.185,13.185,0,0,1,8.88-5,5.564,5.564,0,0,1,4.588.989,4.253,4.253,0,0,1,.951,4.2,8.6,8.6,0,0,1-2.467,3.726c-3.714,3.6-7.98,6.425-13.133,5.975" transform="translate(-463.247 -402.809)"/><path class="f" d="M498.016,461.654a6.492,6.492,0,0,1-.077-1.285c0-.887-.064-2.017-.1-3.392a35.157,35.157,0,0,1,1.157-11.141,21.4,21.4,0,0,1,5.8-9.548,15.137,15.137,0,0,1,2.763-1.992,7.929,7.929,0,0,1,.835-.411c.193-.09.3-.129.308-.1a21.318,21.318,0,0,0-3.688,2.737,21.949,21.949,0,0,0-5.59,9.445,37.46,37.46,0,0,0-1.285,11.013c0,1.426,0,2.57,0,3.392A7.025,7.025,0,0,1,498.016,461.654Z" transform="translate(-471.139 -401.36)"/><path class="f" d="M506.012,415.63a4.248,4.248,0,0,1,.167.514l.411,1.5c.347,1.285.835,3.187,1.4,5.526,1.157,4.678,2.66,11.154,4.151,18.35s2.7,13.75,3.508,18.5c.411,2.377.72,4.292.912,5.628.09.63.167,1.144.219,1.529a2.565,2.565,0,0,1,0,.553,1.922,1.922,0,0,1-.141-.527c-.077-.4-.167-.9-.3-1.529l-1.054-5.6c-.874-4.729-2.133-11.27-3.624-18.466s-2.943-13.673-4.022-18.376c-.527-2.3-.964-4.189-1.285-5.551-.141-.63-.244-1.131-.334-1.516A1.89,1.89,0,0,1,506.012,415.63Z" transform="translate(-489.8 -406.532)"/><path class="g" d="M531.8,447.76a23.234,23.234,0,0,0-15.947-14.02c-1.825-.437-4.1-.5-5.14,1.028s-.321,3.662.707,5.23a19.854,19.854,0,0,0,20.368,8.289" transform="translate(-510.2 -401.447)"/><path class="f" d="M506.38,437.89a5.958,5.958,0,0,1,1.157.231,13.356,13.356,0,0,1,1.285.385,15.269,15.269,0,0,1,1.722.63,19.3,19.3,0,0,1,2,.925c.707.36,1.439.81,2.185,1.285a26.1,26.1,0,0,1,4.459,3.752,25.711,25.711,0,0,1,3.405,4.716,21.688,21.688,0,0,1,1.092,2.3,16.975,16.975,0,0,1,.745,2.069,15.9,15.9,0,0,1,.463,1.773,8.216,8.216,0,0,1,.244,1.349,5.22,5.22,0,0,1,.116,1.169c-.09,0-.27-1.658-1.105-4.189-.231-.63-.463-1.285-.8-2.03a22.83,22.83,0,0,0-1.118-2.249,26.4,26.4,0,0,0-3.367-4.613,27.678,27.678,0,0,0-4.356-3.714,23.065,23.065,0,0,0-2.146-1.285,21,21,0,0,0-1.953-.964C508,438.34,506.354,438.031,506.38,437.89Z" transform="translate(-498.752 -400.187)"/></g><g transform="translate(497.207 152.622)"><path class="h" d="M337.678,217.3a23.13,23.13,0,0,0-3.521-5.14l1.966-5.4-7.993-5.14-4.1,4.022a23.128,23.128,0,0,0-6.091-1.105l-2.429-5.2-9.278,2v5.744a22.5,22.5,0,0,0-5.14,3.534l-5.4-1.966-5.14,7.98,4.022,4.112a23.132,23.132,0,0,0-1.118,6.091l-5.14,2.429,2,9.291h5.744a23.479,23.479,0,0,0,3.521,5.14l-1.953,5.4,7.98,5.14,4.048-3.932a23.593,23.593,0,0,0,6.091,1.105l2.429,5.2,9.278-2.018.064-5.731a23.977,23.977,0,0,0,5.14-3.534l5.4,1.966,5.14-7.993-4.022-4.1a23.594,23.594,0,0,0,1.105-6.091l5.2-2.429-2.018-9.278H337.73Zm-10.961,8.083a10.177,10.177,0,1,1-4.44-6.414A10.19,10.19,0,0,1,326.717,225.388Z" transform="translate(-288.32 -166.302)"/><path class="h" d="M303.916,182.343a11.567,11.567,0,0,0-1.709-2.48l.951-2.57-3.855-2.506-1.979,1.953a11.425,11.425,0,0,0-2.968-.54l-1.169-2.57-4.51.977V177.4a11.409,11.409,0,0,0-2.467,1.709l-2.57-.951-2.493,3.855,1.825,2.017a11.424,11.424,0,0,0-.54,2.968l-2.57,1.169.977,4.51h2.776a11.036,11.036,0,0,0,1.722,2.467l-.964,2.57,3.855,2.493,1.992-1.953a11.436,11.436,0,0,0,2.956.54l1.182,2.57,4.5-.977v-2.776a11.116,11.116,0,0,0,2.48-1.722l2.57.964L306.409,193,304.456,191a11.438,11.438,0,0,0,.54-2.956l2.57-1.182-.977-4.5H303.8Zm-5.32,3.919a4.947,4.947,0,1,1-5.885-3.778A4.947,4.947,0,0,1,298.6,186.262Z" transform="translate(-239.523 -173.63)"/><path class="i" d="M283.258,206.468a14.778,14.778,0,0,0-2.2-3.161l1.285-3.354-4.973-3.2-2.57,2.506a14.329,14.329,0,0,0-3.791-.694l-1.5-3.225-5.77,1.285V200.2a14.328,14.328,0,0,0-3.161,2.2l-3.354-1.285-3.2,4.973,2.506,2.57a14.52,14.52,0,0,0-.694,3.791l-3.225,1.5,1.285,5.77h3.572a14.327,14.327,0,0,0,2.2,3.161l-1.285,3.354,4.973,3.2,2.57-2.506a14.521,14.521,0,0,0,3.791.694l1.414,3.264,5.77-1.285v-3.56a14.78,14.78,0,0,0,3.161-2.2l3.354,1.285,3.2-4.96-2.506-2.57a14.331,14.331,0,0,0,.694-3.791l3.238-1.5-1.285-5.77h-3.56Zm-6.824,5.037a4.3,4.3,0,1,0,0,.1Z" transform="translate(-184.978 -167.442)"/><path class="f" d="M274.263,209.169v-.411a4.508,4.508,0,0,0-.36-1.118,6.425,6.425,0,0,0-3.007-3.084,6.618,6.618,0,1,0-3.675,12.529,6.528,6.528,0,0,0,5.885-2.313,6.323,6.323,0,0,0,1.465-4.048,4.781,4.781,0,0,0-.141-1.169c0-.257-.1-.386-.129-.386s.064.565,0,1.542a6.219,6.219,0,0,1-1.555,3.752,6.06,6.06,0,1,1-2.069-9.509,6.271,6.271,0,0,1,2.968,2.763C274.1,208.565,274.2,209.169,274.263,209.169Z" transform="translate(-182.807 -165.003)"/><path class="f" d="M283.555,206.557a4.332,4.332,0,0,0,.887.064l2.673.077-.1-.077c.308,1.5.707,3.444,1.2,5.783l.09-.193-3.238,1.491h-.116v.129a14.293,14.293,0,0,1-.707,3.727v.128l.09.09,2.493,2.57v-.3L283.607,225l.308-.1-3.341-1.285-.167-.064-.116.116a14.765,14.765,0,0,1-3.11,2.146l-.154.077v3.739l.244-.283-5.783,1.285.347.167-1.5-3.225-.077-.18h-.193a14.341,14.341,0,0,1-3.7-.668l-.193-.064-.129.141c-.81.771-1.671,1.632-2.57,2.493h.411l-4.973-3.2.141.386,1.221-3.354.064-.193-.128-.141a14.254,14.254,0,0,1-2.146-3.1h0l-.3-.18h-3.572l.321.27c-.411-1.953-.835-3.855-1.285-5.77l-.18.373,3.225-1.516.18-.077v-.206a13.737,13.737,0,0,1,.668-3.7l.064-.193-.141-.129-2.506-2.57v.386q1.645-2.57,3.187-4.973l-.36.129,3.354,1.208.18.064.129-.116a13.982,13.982,0,0,1,3.1-2.159l.154-.077V196.7l-.218.27,5.757-1.285-.283-.141c.54,1.131,1.041,2.2,1.516,3.225l.064.141h.154a14.662,14.662,0,0,1,3.727.655h.129l.09-.09,2.57-2.57h-.244l5,3.161-.064-.18c-.475,1.285-.861,2.442-1.182,3.367v.064h0a20.641,20.641,0,0,1,2.275,3.084.469.469,0,0,0-.09-.218,6.507,6.507,0,0,0-.334-.643,12.942,12.942,0,0,0-1.7-2.364v.1l1.285-3.341v-.1l-.1-.077-4.935-3.238-.129-.077-.116.1-2.57,2.493h.231a14.366,14.366,0,0,0-3.855-.72l.206.141-1.491-3.251-.077-.18h-.206l-5.783,1.285H263.7v3.791l.154-.257a14.972,14.972,0,0,0-3.238,2.223h.308l-3.354-1.285-.231-.09-.129.218c-1.041,1.606-2.107,3.264-3.213,4.947l-.129.218.18.18,2.493,2.57-.077-.334a15.109,15.109,0,0,0-.707,3.855l.193-.283-3.238,1.5-.244.116.064.257c.4,1.889.822,3.855,1.285,5.77v.257h3.817l-.283-.18h0a15.227,15.227,0,0,0,2.21,3.47v-.347l-1.285,3.354-.09.257.218.141,5.012,3.2.218.141.193-.193,2.57-2.506-.334.077a14.751,14.751,0,0,0,3.855.707l-.27-.193c.514,1.131,1.041,2.236,1.5,3.238l.116.231.231-.064,5.77-1.285h.244v-3.8l-.154.257a15.125,15.125,0,0,0,3.225-2.249H280.3l3.354,1.208.206.077.116-.18c1.105-1.748,2.172-3.405,3.174-4.973l.1-.167-.141-.129-2.506-2.57v.231a15.189,15.189,0,0,0,.668-3.855l-.116.167,3.225-1.529h.128v-.141c-.54-2.326-.977-4.253-1.285-5.757v-.051h-3.675Z" transform="translate(-185.276 -167.53)"/><g class="j" transform="translate(0 33.038)"><path class="e" d="M337.678,217.3a23.13,23.13,0,0,0-3.521-5.14l1.966-5.4-7.993-5.14-4.1,4.022a23.128,23.128,0,0,0-6.091-1.105l-2.429-5.2-9.278,2v5.744a22.5,22.5,0,0,0-5.14,3.534l-5.4-1.966-5.14,7.98,4.022,4.112a23.132,23.132,0,0,0-1.118,6.091l-5.14,2.429,2,9.291h5.744a23.479,23.479,0,0,0,3.521,5.14l-1.953,5.4,7.98,5.14,4.048-3.932a23.593,23.593,0,0,0,6.091,1.105l2.429,5.2,9.278-2.018.064-5.731a23.977,23.977,0,0,0,5.14-3.534l5.4,1.966,5.14-7.993-4.022-4.1a23.594,23.594,0,0,0,1.105-6.091l5.2-2.429-2.018-9.278H337.73Zm-10.961,8.083a10.177,10.177,0,1,1-4.44-6.414A10.19,10.19,0,0,1,326.717,225.388Z" transform="translate(-288.32 -199.34)"/></g></g><g transform="translate(297.126 95.817)"><path class="k" d="M287.53,227.544c2.3-25.868,11.321-51.748,28.875-70.883s44.347-30.648,69.957-26.33,48.227,26.215,50.026,52.134c.912,13.763-3.675,27.423-2.917,41.185,1.285,23.8,18.363,43.935,37.459,58.174,16.461,12.285,34.208,16.706,46,33.411,21.165,30.121,17.644,64.83,5.14,85.584-4.292,7.132-11.334,13.84-19.777,19.558-24.249,16.449-54.588,20.689-82.988,13.454-44.064-11.244-83.849-39.039-106.774-75.11C285.9,316.88,283.752,270.053,287.53,227.544Z" transform="translate(-272.02 -129.426)"/><g class="j" transform="translate(14.069)"><path class="a" d="M287.53,227.544c2.3-25.868,11.321-51.748,28.875-70.883s44.347-30.648,69.957-26.33,48.227,26.215,50.026,52.134c.912,13.763-3.675,27.423-2.917,41.185,1.285,23.8,18.363,43.935,37.459,58.174,16.461,12.285,34.208,16.706,46,33.411,21.165,30.121,17.644,64.83,5.14,85.584-4.292,7.132-11.334,13.84-19.777,19.558-24.249,16.449-54.588,20.689-82.988,13.454-44.064-11.244-83.849-39.039-106.774-75.11C285.9,316.88,283.752,270.053,287.53,227.544Z" transform="translate(-286.089 -129.426)"/></g><ellipse class="k" cx="1.825" cy="1.825" rx="1.825" ry="1.825" transform="translate(199.104 278.987)"/><ellipse class="k" cx="0.964" cy="0.964" rx="0.964" ry="0.964" transform="translate(170.923 311.203)"/><path class="k" d="M427.629,377.348c6.579,2.7,14.135,12.131,14.637,19.545s-3.38,14.791-9.355,19.2a30.314,30.314,0,0,1-21.152,5.23c-5.281-.578-10.64-2.454-14.213-6.425-3.958-4.331-5.2-10.6-4.626-16.436a27.577,27.577,0,0,1,11.758-20.252c6.759-4.421,16.024-5.05,22.951-.912" transform="translate(-319.3 -59.565)"/><g class="j" transform="translate(73.486 314.952)"><path class="l" d="M427.629,377.348c6.579,2.7,14.135,12.131,14.637,19.545s-3.38,14.791-9.355,19.2a30.314,30.314,0,0,1-21.152,5.23c-5.281-.578-10.64-2.454-14.213-6.425-3.958-4.331-5.2-10.6-4.626-16.436a27.577,27.577,0,0,1,11.758-20.252c6.759-4.421,16.024-5.05,22.951-.912" transform="translate(-392.786 -374.517)"/></g><path class="h" d="M438.88,266.65a3.29,3.29,0,1,0,3.29-3.29A3.29,3.29,0,0,0,438.88,266.65Z" transform="translate(-381.683 -91.249)"/><ellipse class="k" cx="1.825" cy="1.825" rx="1.825" ry="1.825" transform="translate(108.162 49.955)"/><path class="m" d="M326.83,431.135c0,2.146,31.779,3.855,71,3.855s71-1.735,71-3.855-31.779-3.855-71-3.855S326.83,428.989,326.83,431.135Z" transform="translate(-261.062 -44.526)"/><path class="f" d="M514.726,463.971,498.509,430.56H319.619L298.3,463.971s216.426,2.249,216.426.077" transform="translate(-270.299 -43.591)"/><path class="n" d="M384.83,463.433c.141,0,.257-6.5.257-14.508s-.116-14.5-.257-14.5-.27,6.489-.27,14.5S384.676,463.433,384.83,463.433Z" transform="translate(-251.507 -42.488)"/><path class="n" d="M384.75,440.77l.681.116,1.979.218,7.415.758,25.469,2.429-.206-.116,5.333,8.6.077.129h2.236l33.886.63,10.28.129h2.8l-2.789-.116-10.28-.3-33.886-.784h-2.095l.218.129c-1.838-2.968-3.637-5.847-5.333-8.6l-.077-.1h-.129l-25.469-2.249-7.427-.6-1.992-.129Z" transform="translate(-342.344 -40.681)"/><path class="n" d="M441.44,444.658a72.594,72.594,0,0,0,1.915-12.3,35.988,35.988,0,0,0-1.285,6.1,34.864,34.864,0,0,0-.63,6.194Z" transform="translate(-382.868 -43.078)"/><path class="n" d="M301.87,459.611a2.108,2.108,0,0,0,.283-.54l.668-1.542,2.287-5.564-.193.116,12.272-.912c6.232-.488,11.874-.951,15.96-1.285l4.832-.437a16.187,16.187,0,0,0,1.76-.219,11.72,11.72,0,0,0-1.786,0l-4.845.308c-4.1.283-9.741.694-15.986,1.182l-12.246.989h-.154v.116c-.861,2.274-1.581,4.189-2.107,5.6l-.553,1.568a2.11,2.11,0,0,0-.193.617Z" transform="translate(-99.901 -38.28)"/><path class="n" d="M306.31,440.978h3.225l8.892.077,30.16.09h-.09l8.186,3.071,4.433,1.67h.141l32.653-4.035,9.741-1.285,2.57-.36.681-.1.219-.064h-.912l-2.647.27-9.753,1.105L361.13,445.27h.128l-4.433-1.671-8.2-3.071h-.09l-30.16.09-8.892.077h-3.02Z" transform="translate(-172.987 -40.889)"/><rect class="k" width="41.198" height="5.641" transform="translate(0 129.653)"/><rect class="k" width="17.823" height="5.641" transform="translate(23.375 139.856)"/></g><g transform="translate(0 203.445)"><path class="f" d="M681.454,240.748a1.468,1.468,0,0,0-.257-.244l-.81-.668-.617-.475-.8-.488-.951-.565-1.131-.5a20.741,20.741,0,0,0-14.649-.257,23.53,23.53,0,0,0-8.841,5.23,24.417,24.417,0,0,0-6.22,10.01c-2.7,7.967-2,17.721,1.889,26.523s10.1,15.857,15.935,21.7,11.565,10.7,16.076,15.061a117.7,117.7,0,0,1,10.152,10.769c1.105,1.362,1.928,2.441,2.48,3.187l.63.835c.141.18.218.283.231.27a1.287,1.287,0,0,0-.18-.308c-.141-.231-.334-.527-.578-.874-.5-.771-1.285-1.889-2.377-3.264A106.824,106.824,0,0,0,681.4,315.73c-4.472-4.395-10.113-9.291-15.96-15.151s-11.874-12.85-15.768-21.537-4.5-18.26-1.927-26.048a24.249,24.249,0,0,1,6.014-9.818,23.13,23.13,0,0,1,8.623-5.14,20.56,20.56,0,0,1,14.392,0,22.889,22.889,0,0,1,4.678,2.711Z" transform="translate(-599.263 -206.579)"/><path class="k" d="M734.836,419.048v-40.9c0-14.5-9.7-24.326-21.846-24.48L588.239,352.11a15.009,15.009,0,0,0-15.189,15v51.2Z" transform="translate(-546.347 -173.58)"/><rect class="m" width="50.541" height="23.619" transform="translate(42.059 191.252)"/><path class="f" d="M635.414,417.767c.18,0,.334-14.47.334-32.319s-.154-32.319-.334-32.319-.334,14.47-.334,32.319S635.234,417.767,635.414,417.767Z" transform="translate(-526.97 -173.289)"/><path class="f" d="M657.391,338.208a3.728,3.728,0,0,0-1.285-.591,13.5,13.5,0,0,0-3.637-.81,15.176,15.176,0,0,0-16.706,14.572,13.4,13.4,0,0,0,.3,3.714,4.253,4.253,0,0,0,.424,1.285,24.744,24.744,0,0,1-.244-4.973,15.125,15.125,0,0,1,16.2-14.135,24.956,24.956,0,0,1,4.947.938Z" transform="translate(-549.461 -177.964)"/><path class="k" d="M693.344,390.2l-61.4-165.23L587.56,246.045l52.083,155.027Z" transform="translate(-523.501 -209.819)"/><ellipse class="o" cx="24.647" cy="24.647" rx="24.647" ry="24.647" transform="matrix(-0.787, -0.617, 0.617, -0.787, 160.133, 251.021)"/><ellipse class="f" cx="25.354" cy="25.354" rx="25.354" ry="25.354" transform="matrix(-0.416, -0.909, 0.909, -0.416, 140.425, 240.47)"/><ellipse class="g" cx="9.638" cy="9.638" rx="9.638" ry="9.638" transform="translate(146.659 218.888) rotate(-107.42)"/><path class="f" d="M635.821,375.988a9.257,9.257,0,0,0-.308-1.015c-.257-.72-.591-1.7-1.015-2.9-.925-2.57-2.223-6.168-3.855-10.6-3.315-9-7.852-21.306-12.85-34.914l-9.149-24.493-.18.385,18.106-6.425,5.063-1.863,1.285-.5a1.532,1.532,0,0,0,.437-.206,2.236,2.236,0,0,0-.475.116l-1.285.424-5.14,1.683-18.183,6.168-.27.09.1.283c2.57,7.145,5.744,15.562,9,24.518l13.069,34.85,4.022,10.525,1.131,2.853a4.691,4.691,0,0,0,.5,1.028Z" transform="translate(-492.244 -190.3)"/><path class="f" d="M614.81,299.346c0,.18,10.923-3.971,24.261-9.252s24.082-9.7,24.017-9.882-10.936,3.971-24.262,9.265S614.733,299.217,614.81,299.346Z" transform="translate(-528.263 -194.075)"/><path class="f" d="M638.324,404.774s-.617-.578-1.761-1.593A57.628,57.628,0,0,1,632,398.619,72.087,72.087,0,0,1,620.578,380.8a158.854,158.854,0,0,1-7.338-20l-1.889-6.181c-.218-.668-.385-1.221-.54-1.683s-.206-.578-.231-.565a1.99,1.99,0,0,0,.1.6c.116.463.257,1.028.411,1.709.385,1.478.951,3.624,1.7,6.258a138.025,138.025,0,0,0,7.183,20.124,67.787,67.787,0,0,0,11.681,17.875,44,44,0,0,0,4.742,4.433,17.117,17.117,0,0,0,1.4,1.066C638.131,404.684,638.311,404.8,638.324,404.774Z" transform="translate(-498.062 -173.506)"/><path class="f" d="M584.862,391.347a1.619,1.619,0,0,0,.437-.09,4.742,4.742,0,0,0,1.169-.553,7.838,7.838,0,0,0,2.943-3.688,14.277,14.277,0,0,0,.655-6.965,84.778,84.778,0,0,0-1.439-8.4,90.084,90.084,0,0,0-4.6-14.765c-.745-1.838-1.426-3.29-1.9-4.279a8.537,8.537,0,0,0-.835-1.5,8.543,8.543,0,0,0,.591,1.606c.411,1.028,1.028,2.493,1.709,4.343a108.336,108.336,0,0,1,4.382,14.739c1.169,5.834,2.454,11.373,1,15.061a8.018,8.018,0,0,1-2.647,3.637A15.31,15.31,0,0,1,584.862,391.347Z" transform="translate(-412.332 -173.868)"/><ellipse class="n" cx="22.334" cy="22.334" rx="22.334" ry="22.334" transform="translate(159.704 256.288)"/><ellipse class="f" cx="7.659" cy="7.659" rx="7.659" ry="7.659" transform="translate(174.38 270.963)"/><ellipse class="n" cx="22.334" cy="22.334" rx="22.334" ry="22.334" transform="translate(86.316 256.879)"/><ellipse class="f" cx="7.659" cy="7.659" rx="7.659" ry="7.659" transform="translate(100.991 271.554)"/><ellipse class="n" cx="22.334" cy="22.334" rx="22.334" ry="22.334" transform="translate(12.362 256.879)"/><ellipse class="f" cx="7.659" cy="7.659" rx="7.659" ry="7.659" transform="translate(27.037 271.554)"/><path class="f" d="M585.2,471.419H733.84a33.9,33.9,0,0,0,0-67.8H585.2a33.9,33.9,0,0,0,0,67.8Zm148.64-56.683a22.784,22.784,0,0,1,0,45.567H585.2a22.784,22.784,0,0,1,0-45.567Z" transform="translate(-551.3 -158.897)"/><path class="n" d="M635.213,414.661a71.98,71.98,0,0,0,0-10.871,76.7,76.7,0,0,0,0,10.871Z" transform="translate(-526.563 -158.849)"/><path class="n" d="M656.906,414.661a71.964,71.964,0,0,0,0-10.871,71.933,71.933,0,0,0,0,10.871Z" transform="translate(-576.115 -158.849)"/><path class="n" d="M678.586,414.661a71.964,71.964,0,0,0,0-10.871,71.957,71.957,0,0,0,0,10.871Z" transform="translate(-625.655 -158.849)"/><path class="n" d="M701.838,415.389a36.061,36.061,0,0,0-1.375-5.269,36.741,36.741,0,0,0-1.773-5.14,37.271,37.271,0,0,0,1.388,5.256A39.22,39.22,0,0,0,701.838,415.389Z" transform="translate(-674.801 -158.51)"/><path class="n" d="M719.786,425.037a72.505,72.505,0,0,0-9.676-4.947,37.56,37.56,0,0,0,4.742,2.647A35.409,35.409,0,0,0,719.786,425.037Z" transform="translate(-707.424 -154.203)"/><path class="n" d="M634.156,448.11a71.934,71.934,0,0,0,0,10.871,71.949,71.949,0,0,0,0-10.871Z" transform="translate(-524.131 -146.216)"/><path class="n" d="M655.846,447.84a71.941,71.941,0,0,0,0,10.871,76.755,76.755,0,0,0,0-10.871Z" transform="translate(-573.68 -146.293)"/><path class="n" d="M677.526,447.84a71.949,71.949,0,0,0,0,10.871A76.755,76.755,0,0,0,677.526,447.84Z" transform="translate(-623.22 -146.293)"/><path class="n" d="M700.781,447.28a37.489,37.489,0,0,0-1.773,5.14,39.441,39.441,0,0,0-1.388,5.269,36.111,36.111,0,0,0,1.773-5.14,37.275,37.275,0,0,0,1.388-5.269Z" transform="translate(-672.369 -146.453)"/><path class="n" d="M719.316,437.3a39.412,39.412,0,0,0-4.935,2.3,37.57,37.57,0,0,0-4.742,2.647,70.5,70.5,0,0,0,9.676-4.948Z" transform="translate(-706.35 -149.297)"/><path class="n" d="M614.526,448.11a71.958,71.958,0,0,0,0,10.871A76.728,76.728,0,0,0,614.526,448.11Z" transform="translate(-479.262 -146.216)"/><path class="n" d="M592.846,448.11a71.942,71.942,0,0,0,0,10.871A76.728,76.728,0,0,0,592.846,448.11Z" transform="translate(-429.723 -146.216)"/><path class="n" d="M570.19,447.283a37.261,37.261,0,0,0,1.388,5.256,38.083,38.083,0,0,0,1.773,5.14,72.94,72.94,0,0,0-3.161-10.409Z" transform="translate(-381.187 -146.455)"/><path class="n" d="M553.69,436.42a37.553,37.553,0,0,0,4.742,2.647,39.4,39.4,0,0,0,4.935,2.3,36.311,36.311,0,0,0-4.755-2.66A37.263,37.263,0,0,0,553.69,436.42Z" transform="translate(-349.999 -149.548)"/><path class="n" d="M615.6,414.921a76.737,76.737,0,0,0,0-10.871,71.949,71.949,0,0,0,0,10.871Z" transform="translate(-481.707 -158.775)"/><path class="n" d="M593.906,414.921a71.948,71.948,0,0,0,0-10.871A71.948,71.948,0,0,0,593.906,414.921Z" transform="translate(-432.158 -158.775)"/><path class="n" d="M571.26,415.386a36.092,36.092,0,0,0,1.773-5.14,37.272,37.272,0,0,0,1.388-5.256,36.7,36.7,0,0,0-1.773,5.14,37.254,37.254,0,0,0-1.388,5.256Z" transform="translate(-383.632 -158.507)"/><path class="n" d="M554.16,424.147a36.145,36.145,0,0,0,4.934-2.287,37.391,37.391,0,0,0,4.755-2.66,35.391,35.391,0,0,0-4.935,2.313,36.466,36.466,0,0,0-4.755,2.634Z" transform="translate(-351.085 -154.456)"/><path class="b" d="M616.862,286.589,533.515,253.05l-4.755,17.939,79.621,34.645Z" transform="translate(-371.459 -201.816)"/><path class="k" d="M588.92,266.948,647.7,290.259l13.776-36.919-66.565-27.86Z" transform="translate(-493.377 -209.674)"/><path class="b" d="M694.6,243.674l-36.739-15.3,6.053-15.189,35.66,14.405Z" transform="translate(-620.067 -213.18)"/><ellipse class="o" cx="23.156" cy="23.156" rx="23.156" ry="23.156" transform="translate(69.662 22.18)"/><path class="f" d="M635.328,227.863A23.825,23.825,0,1,0,669,226.578a23.825,23.825,0,0,0-33.668,1.285Z" transform="translate(-560.012 -211.17)"/><path class="g" d="M642.792,234.66a9,9,0,1,0,6.314-2.966,9,9,0,0,0-6.314,2.966Z" transform="translate(-556.63 -207.905)"/><path class="f" d="M639.656,243.33a7.168,7.168,0,0,0-.977.9c-.668.707-1.542,1.593-2.57,2.673l-8.828,9.394.347-.077-8.109-3.225c-6.862-2.711-13.069-5.14-17.579-6.849l-5.359-2a14.351,14.351,0,0,0-1.992-.643,11.97,11.97,0,0,0,1.889.887l5.281,2.21c4.472,1.825,10.653,4.318,17.5,7.016l8.134,3.2.205.077.141-.154,8.648-9.561c1-1.131,1.812-2.069,2.454-2.8a5.364,5.364,0,0,0,.81-1.041Z" transform="translate(-478.847 -204.586)"/><path class="k" d="M556.642,296.831,497.787,271.85,481.03,306.559l61,26.3Z" transform="translate(-249.903 -196.457)"/><ellipse class="o" cx="19.019" cy="19.019" rx="19.019" ry="19.019" transform="translate(278.834 139.246) rotate(-103.48)"/><ellipse class="f" cx="20.355" cy="20.355" rx="20.355" ry="20.355" transform="translate(287.151 144.818) rotate(-107.68)"/><path class="g" d="M490.639,300.553a7.71,7.71,0,1,0,4.166,4.214A7.71,7.71,0,0,0,490.639,300.553Z" transform="translate(-187.242 -188.447)"/><path class="f" d="M538.044,319a6.426,6.426,0,0,0,.308-1.452l.655-4.086c.527-3.6,1.285-8.481,2.043-14.135v-.244l-.231-.09-7.235-2.943c-7.081-2.878-13.506-5.436-18.17-7.26l-5.539-2.133a12.49,12.49,0,0,0-2.056-.694,13.631,13.631,0,0,0,1.966.938l5.449,2.326c4.626,1.928,11.013,4.562,18.093,7.44l7.248,2.917-.193-.334c-.72,5.628-1.349,10.512-1.812,14.135-.193,1.671-.347,3.046-.463,4.112a7.471,7.471,0,0,0-.064,1.5Z" transform="translate(-268.739 -192.435)"/><rect class="f" width="2.442" height="14.765" transform="matrix(-0.169, 0.986, -0.986, -0.169, 352.663, 131.495)"/><path class="f" d="M467.441,304.531,476,306l.745-4.356,3.29.565-.964,5.706,6,1.028-.488,2.853-1.928,11.257-6-1.028-.925,5.4-2.93-.5.591-3.444-8.931-1.529Z" transform="translate(-157.041 -187.966)"/><rect class="n" width="13.853" height="9.137" transform="matrix(-0.986, -0.169, 0.169, -0.986, 339.668, 135.191)"/></g><g transform="translate(368.142 163.47)"><path class="k" d="M396.825,244.905s59.112-1.915,59.112,29.556c0,35.634-11.745,102.4-59.112,101.711s-56.053-94.322-56.542-98.485C340.245,277.648,337.777,247.6,396.825,244.905Z" transform="translate(-336.445 -164.168)"/><path class="f" d="M341.59,264.733a1.1,1.1,0,0,0,.244.193l.758.5c.655.45,1.658,1.054,2.956,1.8a71.228,71.228,0,0,0,11.668,5.14,95.313,95.313,0,0,0,18.427,4.279,164.148,164.148,0,0,0,23.131,1.285,213.191,213.191,0,0,0,23.131-1.169,63.689,63.689,0,0,0,18.3-4.806,41.777,41.777,0,0,0,10.743-6.849c1.105-1.028,1.928-1.876,2.442-2.467l.578-.694.193-.244a2.927,2.927,0,0,0-.244.206l-.63.643a30.232,30.232,0,0,1-2.57,2.352,42.4,42.4,0,0,1-10.756,6.631,64.484,64.484,0,0,1-18.119,4.69,225.578,225.578,0,0,1-23.066,1.118,171.4,171.4,0,0,1-23.054-1.285,97.948,97.948,0,0,1-18.363-4.125,76.361,76.361,0,0,1-11.681-4.973c-1.285-.707-2.339-1.285-3.02-1.683l-.784-.437A1.519,1.519,0,0,0,341.59,264.733Z" transform="translate(-336.377 -159.375)"/><path class="f" d="M368.468,273.3a4.213,4.213,0,0,0-.09.874c0,.578,0,1.439,0,2.57a44.35,44.35,0,0,0,.977,9.278,31.965,31.965,0,0,0,2.018,6.142,26.2,26.2,0,0,0,3.855,6.335,23.568,23.568,0,0,0,6.31,5.269,22.422,22.422,0,0,0,4.022,1.722,18.944,18.944,0,0,0,4.446.758,16.706,16.706,0,0,0,8.52-2.107,21.191,21.191,0,0,0,6.271-5.32,27.5,27.5,0,0,0,5.474-12.67,47.8,47.8,0,0,0,.591-9.317c0-1.092-.1-1.953-.154-2.57a4.146,4.146,0,0,0-.116-.887,5.846,5.846,0,0,0,0,.887c0,.643,0,1.491,0,2.57a49.93,49.93,0,0,1-.8,9.214,27.2,27.2,0,0,1-5.474,12.362,20.778,20.778,0,0,1-6.1,5.14,16.165,16.165,0,0,1-8.237,1.992,18.287,18.287,0,0,1-4.279-.72,21.034,21.034,0,0,1-3.855-1.671,22.667,22.667,0,0,1-6.155-5.14,25.136,25.136,0,0,1-3.855-6.155,31.673,31.673,0,0,1-2.069-6.027,48.084,48.084,0,0,1-1.182-9.175c0-1.041,0-1.876-.064-2.57A4.143,4.143,0,0,0,368.468,273.3Z" transform="translate(-327.531 -156.068)"/><path class="f" d="M356.99,335.523c.077,0,.463-1.285,1.465-3.457a39.5,39.5,0,0,1,5.461-8.6,38.1,38.1,0,0,1,11.758-9.329,37.086,37.086,0,0,1,35.416,1.349,37.844,37.844,0,0,1,11.013,10.19,38.873,38.873,0,0,1,4.793,9c.848,2.262,1.131,3.572,1.208,3.56a6.024,6.024,0,0,0-.193-.964,25.886,25.886,0,0,0-.771-2.686,36.366,36.366,0,0,0-4.652-9.162,37.652,37.652,0,0,0-11.09-10.447,37.266,37.266,0,0,0-35.981-1.362,37.652,37.652,0,0,0-11.835,9.574,36.7,36.7,0,0,0-5.346,8.79c-.45,1.131-.784,2-.964,2.57a4.944,4.944,0,0,0-.283.977Z" transform="translate(-330.111 -145.712)"/><path class="m" d="M431.78,308.156,429.056,296H405.18c.848,3.624,2.03,7.852,3.393,12.349Z" transform="translate(-395.714 -149.598)"/><path class="m" d="M342.92,308.156,345.631,296H369.52c-.848,3.624-1.568,7.852-2.917,12.349Z" transform="translate(-253.447 -149.598)"/><path class="o" d="M342.523,266.545c5.718-9.329,20.843-20.124,53.47-21.64,0,0,36.559-1.182,52.172,13.609a33.82,33.82,0,0,1,3.984,4.935c.951,1.76-12.195,17.554-54.447,16.2C354.114,278.252,342.523,266.545,342.523,266.545Z" transform="translate(-335.614 -164.168)"/><path class="f" d="M346.754,223.836c2.095-4.69,3.11-10.062,1.683-15s-5.667-9.239-10.794-9.689" transform="translate(-226.248 -177.204)"/><path class="k" d="M337.906,199.38c0,.09.861.784,2.082,2.185a25.625,25.625,0,0,1,3.984,6,57.818,57.818,0,0,1,2.493,6.824,21.943,21.943,0,0,0,.848,2.917,9.767,9.767,0,0,0-.385-3.033,39.573,39.573,0,0,0-2.339-6.991,21.844,21.844,0,0,0-4.253-6.04,7.71,7.71,0,0,0-2.429-1.863Z" transform="translate(-224.802 -177.138)"/><path class="f" d="M426.687,223.836c-2.095-4.69-3.11-10.062-1.683-15s5.667-9.239,10.781-9.689" transform="translate(-424.34 -177.204)"/><path class="k" d="M435.069,199.38a7.491,7.491,0,0,0-2.429,1.863,21.613,21.613,0,0,0-4.254,6.04,39.578,39.578,0,0,0-2.339,6.991,9.765,9.765,0,0,0-.386,3.033,24.646,24.646,0,0,0,.848-2.917,57.431,57.431,0,0,1,2.48-6.824,26.033,26.033,0,0,1,4-6C434.208,200.177,435.133,199.47,435.069,199.38Z" transform="translate(-425.319 -177.138)"/><path class="k" d="M452.07,251.988a24.878,24.878,0,0,0,6.605-22.36c-3.418-17.219-15.947-48.215-61.99-47.546-48.3.681-57.377,34.118-58.932,50.219a25.109,25.109,0,0,0,5.628,18.453c7.183,8.674,22.437,19.88,53.3,19.867C427.256,270.647,443.692,260.444,452.07,251.988Z" transform="translate(-336.305 -182.072)"/><path class="f" d="M410.413,183.65a2.274,2.274,0,0,0-.27.578l-.668,1.7c-.578,1.465-1.388,3.6-2.647,6.1a26.741,26.741,0,0,1-5.77,7.852,15.484,15.484,0,0,1-10.756,4.331,18.093,18.093,0,0,1-10.82-4.433,28.271,28.271,0,0,1-6.091-7.62,55.948,55.948,0,0,1-2.891-5.988,21.421,21.421,0,0,0-.989-2.249,1.85,1.85,0,0,0,.154.617c.129.4.321.989.591,1.722a46.638,46.638,0,0,0,2.724,6.13,27.627,27.627,0,0,0,6.1,7.852,18.415,18.415,0,0,0,11.206,4.639,14.135,14.135,0,0,0,6.245-1.285,18.658,18.658,0,0,0,4.935-3.277,26.317,26.317,0,0,0,5.783-8.109,53.116,53.116,0,0,0,2.467-6.22q.385-1.131.54-1.735A3.318,3.318,0,0,0,410.413,183.65Z" transform="translate(-328.509 -181.622)"/><path class="f" d="M362.29,242.955c22.411,5.474,44.282,5.68,65.537.231a18.119,18.119,0,0,0,13.557-17.592v-.308a18.2,18.2,0,0,0-18.2-18.2H366.646a18.2,18.2,0,0,0-18.2,18.2h0A18.183,18.183,0,0,0,362.29,242.955Z" transform="translate(-332.417 -174.941)"/><path class="l" d="M365.252,225a4.125,4.125,0,1,0,.734-3.077,4.125,4.125,0,0,0-.734,3.077Z" transform="translate(-286.008 -171.198)"/><path class="l" d="M402.034,223.141a4.125,4.125,0,1,0,3.418-4.729,4.125,4.125,0,0,0-3.418,4.729Z" transform="translate(-370.053 -171.728)"/><path class="l" d="M381.92,222.49a5.756,5.756,0,0,0,.617,3.572,8.545,8.545,0,0,0,2.429,3.161,8.019,8.019,0,0,0,4.459,1.748,7.878,7.878,0,0,0,4.626-1.067,8.225,8.225,0,0,0,2.763-2.776,5.577,5.577,0,0,0,1.015-3.457,17.315,17.315,0,0,1-1.491,3.11,8.185,8.185,0,0,1-2.66,2.429,7.44,7.44,0,0,1-4.2.912,7.607,7.607,0,0,1-4.061-1.516,8.714,8.714,0,0,1-2.364-2.8A19.894,19.894,0,0,1,381.92,222.49Z" transform="translate(-331.795 -170.551)"/></g><g transform="translate(456.6 0)"><path class="f" d="M128.484,241.8a1.284,1.284,0,0,0,.347.141l1.028.347c.9.308,2.223.8,3.855,1.542a35.416,35.416,0,0,1,12.169,9,27.512,27.512,0,0,1,5.217,9,24.043,24.043,0,0,1,.771,11.861,22.552,22.552,0,0,1-5.911,11.655,18.5,18.5,0,0,1-5.731,3.855,21.3,21.3,0,0,1-6.965,1.7,37.407,37.407,0,0,1-14.045-2.262c-4.382-1.478-8.443-3.457-12.375-5.14a68.862,68.862,0,0,0-11.488-4.112,27.487,27.487,0,0,0-10.6-.681,19.905,19.905,0,0,0-13.3,7.158,16.128,16.128,0,0,0-1.285,2.043c-.27.655-.54,1.182-.681,1.645s-.218.771-.283,1.041a1.285,1.285,0,0,0-.077.373l.141-.347.347-1.028c.167-.437.45-.964.732-1.593a14.131,14.131,0,0,1,1.285-1.979,19.944,19.944,0,0,1,13.159-6.849,27.4,27.4,0,0,1,10.409.758,69.658,69.658,0,0,1,11.373,4.138c3.855,1.709,7.967,3.7,12.413,5.217a37.935,37.935,0,0,0,14.29,2.3,22.05,22.05,0,0,0,7.209-1.683,18.737,18.737,0,0,0,5.924-4.074,23,23,0,0,0,6.053-11.989,24.416,24.416,0,0,0-.861-12.156,27.667,27.667,0,0,0-5.371-9.162,34.9,34.9,0,0,0-12.426-9A29.309,29.309,0,0,0,128.484,241.8Z" transform="translate(226.585 -1.577)"/><path class="k" d="M75.31,414.314v-48.24a24.686,24.686,0,0,1,24.417-24.686l139.618-1.748a16.8,16.8,0,0,1,17,16.8v57.3Z" transform="translate(115.158 26.311)"/><rect class="m" width="56.567" height="26.446" transform="translate(297.82 380.189)"/><path class="f" d="M146.534,413.14c.193,0,.334-16.2.334-36.174s-.141-36.187-.334-36.187-.334,16.191-.334,36.187S146.354,413.14,146.534,413.14Z" transform="translate(133.54 26.636)"/><path class="f" d="M127.207,324.068A26.189,26.189,0,0,1,132.681,323a16.975,16.975,0,0,1,18.183,15.857,25.135,25.135,0,0,1-.321,5.564,4.782,4.782,0,0,0,.463-1.452,14.816,14.816,0,0,0,.321-4.151,17.155,17.155,0,0,0-18.684-16.294,15.277,15.277,0,0,0-4.061.9,5.243,5.243,0,0,0-1.375.643Z" transform="translate(153.458 21.413)"/><path class="k" d="M107.79,382.273,176.514,197.33l49.692,23.58L167.9,394.442Z" transform="translate(103.56 -14.253)"/><ellipse class="o" cx="27.59" cy="27.59" rx="27.59" ry="27.59" transform="translate(200.256 436.95) rotate(-91.95)"/><ellipse class="f" cx="28.374" cy="28.374" rx="28.374" ry="28.374" transform="matrix(-0.367, -0.93, 0.93, -0.367, 214.305, 434.466)"/><path class="g" d="M197.483,371.079a10.794,10.794,0,1,1-5.526-14.225,10.794,10.794,0,0,1,5.526,14.225Z" transform="translate(42.678 30.955)"/><path class="f" d="M152.942,366.369a1.569,1.569,0,0,0,.141-.27l.334-.822,1.285-3.2c1.079-2.84,2.57-6.862,4.5-11.8,3.752-10.036,8.905-23.8,14.611-39l10.062-27.448.1-.283-.283-.09-20.278-6.888-5.718-1.9-1.516-.475L155.6,274s.167.09.5.231l1.478.553,5.667,2.056,20.265,7.132-.167-.373c-2.994,7.993-6.5,17.387-10.28,27.423-5.628,15.228-10.717,29.016-14.418,39.065-1.812,4.973-3.264,9-4.3,11.874-.475,1.362-.861,2.442-1.144,3.238l-.27.848a.9.9,0,0,0,.013.321Z" transform="translate(87.797 7.601)"/><path class="f" d="M181.429,280.583c0-.18-11.977-5.14-26.9-11.026s-27.076-10.563-27.153-10.4,11.977,5.14,26.909,11.026S181.352,280.8,181.429,280.583Z" transform="translate(123.163 3.37)"/><path class="f" d="M150.06,398.592a2.44,2.44,0,0,0,.578-.373c.36-.27.912-.655,1.568-1.208a51.7,51.7,0,0,0,5.294-4.973,76.164,76.164,0,0,0,13.069-20,155.491,155.491,0,0,0,7.98-22.527c.835-2.943,1.478-5.346,1.9-6.991l.475-1.915a3.085,3.085,0,0,0,.116-.681,2.572,2.572,0,0,0-.244.643c-.167.5-.36,1.118-.6,1.876l-2.095,6.926a176.58,176.58,0,0,1-8.211,22.385,79.981,79.981,0,0,1-12.85,19.957,62.457,62.457,0,0,1-5.14,5.14q-.961.822-1.838,1.735Z" transform="translate(94.406 26.393)"/><path class="f" d="M205.163,383.563a15.71,15.71,0,0,1-1.645-.951,8.853,8.853,0,0,1-2.981-4.086,15.973,15.973,0,0,1-.553-7.543c.36-2.878.938-6.04,1.658-9.317a118.77,118.77,0,0,1,4.922-16.5c.771-2.069,1.452-3.714,1.915-4.857a11.784,11.784,0,0,0,.681-1.8,10.764,10.764,0,0,0-.912,1.683c-.54,1.118-1.285,2.75-2.133,4.793a102.712,102.712,0,0,0-5.14,16.526,93.917,93.917,0,0,0-1.619,9.407,16.1,16.1,0,0,0,.732,7.787,8.713,8.713,0,0,0,3.277,4.125,6.723,6.723,0,0,0,1.285.63,1.723,1.723,0,0,0,.514.1Z" transform="translate(3.18 25.989)"/><ellipse class="n" cx="25.007" cy="25.007" rx="25.007" ry="25.007" transform="translate(172.696 452.986)"/><ellipse class="f" cx="8.571" cy="8.571" rx="8.571" ry="8.571" transform="translate(189.132 469.422)"/><ellipse class="n" cx="25.007" cy="25.007" rx="25.007" ry="25.007" transform="translate(254.836 453.642)"/><ellipse class="f" cx="8.571" cy="8.571" rx="8.571" ry="8.571" transform="translate(271.271 470.078)"/><ellipse class="n" cx="25.007" cy="25.007" rx="25.007" ry="25.007" transform="translate(337.618 453.642)"/><ellipse class="f" cx="8.571" cy="8.571" rx="8.571" ry="8.571" transform="translate(354.053 470.078)"/><path class="f" d="M294.268,435.247A37.986,37.986,0,0,0,256.334,397.3H89.947a37.947,37.947,0,0,0,0,75.894H256.334A38,38,0,0,0,294.268,435.247Zm-37.934-25.482a25.508,25.508,0,0,1,0,51.016H89.947a25.508,25.508,0,1,1,0-51.016Z" transform="translate(107.19 42.746)"/><path class="n" d="M146.686,409.7a90.137,90.137,0,0,0,0-12.169,90.132,90.132,0,0,0,0,12.169Z" transform="translate(133.157 42.812)"/><path class="n" d="M122.416,409.7a90.131,90.131,0,0,0,0-12.169,90.135,90.135,0,0,0,0,12.169Z" transform="translate(188.615 42.812)"/><path class="n" d="M98.146,409.7a90.135,90.135,0,0,0,0-12.169,90.133,90.133,0,0,0,0,12.169Z" transform="translate(244.073 42.812)"/><path class="n" d="M72.77,410.462a47.059,47.059,0,0,0,1.992-5.757,48.262,48.262,0,0,0,1.581-5.885,45.505,45.505,0,0,0-1.966,5.77,43.77,43.77,0,0,0-1.606,5.873Z" transform="translate(298.426 43.179)"/><path class="n" d="M54.33,421.226a45.1,45.1,0,0,0,5.5-2.57,44.974,44.974,0,0,0,5.333-2.956,48.656,48.656,0,0,0-5.513,2.57,47.54,47.54,0,0,0-5.32,2.956Z" transform="translate(333.302 47.991)"/><path class="n" d="M147.873,447.1a96.146,96.146,0,0,0,0,12.169,90.142,90.142,0,0,0,0-12.169Z" transform="translate(130.428 56.941)"/><path class="n" d="M123.6,446.8a96.132,96.132,0,0,0,0,12.169,90.133,90.133,0,0,0,0-12.169Z" transform="translate(185.886 56.855)"/><path class="n" d="M99.333,446.8a96.129,96.129,0,0,0,0,12.169A90.134,90.134,0,0,0,99.333,446.8Z" transform="translate(241.344 56.855)"/><path class="n" d="M74,446.17a94.044,94.044,0,0,0,3.534,11.643A90.134,90.134,0,0,0,74,446.17Z" transform="translate(295.654 56.676)"/><path class="n" d="M54.86,435a45.412,45.412,0,0,0,5.32,2.956,44.716,44.716,0,0,0,5.513,2.57,47.568,47.568,0,0,0-5.32-2.956A48.666,48.666,0,0,0,54.86,435Z" transform="translate(332.09 53.492)"/><path class="n" d="M169.866,447.1a90.136,90.136,0,0,0,0,12.169,96.137,96.137,0,0,0,0-12.169Z" transform="translate(80.203 56.941)"/><path class="n" d="M194.136,447.1a90.141,90.141,0,0,0,0,12.169,96.128,96.128,0,0,0,0-12.169Z" transform="translate(24.745 56.941)"/><path class="n" d="M220.164,446.17a90.137,90.137,0,0,0-3.534,11.643,94.045,94.045,0,0,0,3.534-11.642Z" transform="translate(-30.261 56.676)"/><path class="n" d="M240.266,434a94.96,94.96,0,0,0-10.846,5.539A89.721,89.721,0,0,0,240.266,434Z" transform="translate(-66.798 53.207)"/><path class="n" d="M168.666,409.962a90.323,90.323,0,0,0,0-12.182A90.323,90.323,0,0,0,168.666,409.962Z" transform="translate(82.932 42.883)"/><path class="n" d="M192.936,409.962a90.318,90.318,0,0,0,0-12.182,90.325,90.325,0,0,0,0,12.182Z" transform="translate(27.474 42.883)"/><path class="n" d="M218.974,410.462a49,49,0,0,0-1.568-5.873,45.5,45.5,0,0,0-1.966-5.77,48.265,48.265,0,0,0,1.529,5.885,47.058,47.058,0,0,0,2,5.757Z" transform="translate(-27.542 43.179)"/><path class="n" d="M239.736,420.279a94.98,94.98,0,0,0-10.846-5.539,94.959,94.959,0,0,0,10.846,5.539Z" transform="translate(-65.587 47.717)"/><path class="f" d="M309.08,198s-.1-.167-.334-.475l-1.015-1.362c-.912-1.182-2.249-2.93-3.932-5.217-3.367-4.575-8.173-11.231-13.583-19.815a312.467,312.467,0,0,1-17.322-31.111c-2.93-6.027-5.808-12.452-8.584-19.2s-5.641-13.763-9-20.779a119.851,119.851,0,0,0-11.283-19.635,74.8,74.8,0,0,0-14.47-15.215,51.106,51.106,0,0,0-16.924-8.751,39.541,39.541,0,0,0-16.551-1.2A38.551,38.551,0,0,0,183.069,59.5a33.322,33.322,0,0,0-8.211,6.284A29.273,29.273,0,0,0,171,71.1l-.771,1.516c-.167.347-.231.527-.231.527l.3-.5.835-1.478a30.032,30.032,0,0,1,3.855-5.14,32.923,32.923,0,0,1,8.2-6.13,38.191,38.191,0,0,1,12.85-4.112,38.885,38.885,0,0,1,16.32,1.285,51.131,51.131,0,0,1,16.705,8.713A73.966,73.966,0,0,1,243.543,80.74a121.218,121.218,0,0,1,11.206,19.533c3.29,6.991,6.117,14.007,9,20.741s5.68,13.2,8.623,19.276a309.071,309.071,0,0,0,17.438,31.1c5.461,8.558,10.28,15.189,13.776,19.713,1.709,2.262,3.084,4,4.022,5.14l1.079,1.285A4.109,4.109,0,0,1,309.08,198Z" transform="translate(-59.255 -54.862)"/><path class="b" d="M190.285,108.85l82.744,67.863-16.012,15.228L175.25,128.6Z" transform="translate(-29.951 -39.473)"/><path class="k" d="M177.481,236.936,119.5,188.888l30.674-35.518,67.195,53.573Z" transform="translate(97.35 -26.783)"/><path class="b" d="M80.95,226.745l37.009,29.607,12.413-15.009-35.454-29Z" transform="translate(233.884 -9.975)"/><rect class="b" width="23.812" height="28.374" transform="matrix(-0.828, -0.561, 0.561, -0.828, 73.095, 77.28)"/><path class="f" d="M353.975,102.808l-35.506.5-19.7,29.08,9.6,30.237,8.546-2.12L312.481,140.5l14.6-17.554,17.991.989,12.272,8.507,7.736,16.114-13.866,20.471-16.551,3.5.18,7.967,27.281-2.39,21-30.982-9.432-30.944L352.061,101.51" transform="translate(-298.77 -41.565)"/><ellipse class="o" cx="27.59" cy="27.59" rx="27.59" ry="27.59" transform="translate(312.178 246.949) rotate(-153.94)"/><ellipse class="f" cx="28.374" cy="28.373" rx="28.374" ry="28.373" transform="translate(289.118 237.042) rotate(-116.41)"/><path class="g" d="M142.1,215.568a10.781,10.781,0,1,1-.561-8.247A10.794,10.794,0,0,1,142.1,215.568Z" transform="translate(170.037 -13.112)"/><path class="f" d="M151.107,158.72a8.622,8.622,0,0,0-.54,1.285l-1.349,3.714-4.51,13.043-.077.206.167.129,8.828,7.363c6.528,5.41,12.452,10.28,16.706,13.788l5.14,4.112,1.414,1.092a2.441,2.441,0,0,0,.514.347,3.017,3.017,0,0,0-.437-.45l-1.285-1.2-5-4.279c-4.228-3.585-10.1-8.52-16.616-13.93l-8.867-7.325.1.334c1.722-5.269,3.2-9.792,4.279-13.12.475-1.542.874-2.8,1.182-3.765A7.056,7.056,0,0,0,151.107,158.72Z" transform="translate(105.027 -25.258)"/><path class="k" d="M262.393,65.94l59.767,47.174-26.652,37.369L233.12,101.831Z" transform="translate(-153.448 -51.704)"/><ellipse class="o" cx="22.655" cy="22.655" rx="22.655" ry="22.655" transform="translate(78.822 61.644) rotate(-93.11)"/><path class="f" d="M312.556,65.881A24.236,24.236,0,1,1,278.5,69.839a24.236,24.236,0,0,1,34.053-3.958Z" transform="translate(-204.625 -53.213)"/><path class="g" d="M299.892,74.332A9.2,9.2,0,1,1,293.11,72.4a9.214,9.214,0,0,1,6.782,1.933Z" transform="translate(-201.291 -49.88)"/><path class="f" d="M243.98,111.2a9.985,9.985,0,0,0,1.491-.964l3.971-2.814,13.75-9.985h-.4l7.2,5.885c7.055,5.757,13.454,10.936,18.119,14.662l5.539,4.382,1.529,1.157a3.1,3.1,0,0,0,.553.373,4.178,4.178,0,0,0-.475-.475l-1.439-1.285-5.41-4.549c-4.575-3.855-10.936-9-17.991-14.8L263.2,96.914,263,96.76l-.193.141-13.57,10.19-3.855,2.994a11.167,11.167,0,0,0-1.4,1.118Z" transform="translate(-140.971 -42.919)"/></g></svg>